<svg width="40" height="40" viewBox="0 0 40 40" fill="none" xmlns="http://www.w3.org/2000/svg">
  <path d="M33 15H29V11C29 10.448 28.552 10 28 10H7C6.448 10 6 10.448 6 11V27C6 27.552 6.448 28 7 28H9.184C9.598 29.165 10.695 30 12 30C13.305 30 14.402 29.165 14.816 28H25.184C25.598 29.165 26.695 30 28 30C29.305 30 30.402 29.165 30.816 28H33C33.552 28 34 27.552 34 27V16C34 15.448 33.552 15 33 15ZM12 28C11.449 28 11 27.551 11 27C11 26.449 11.449 26 12 26C12.551 26 13 26.449 13 27C13 27.551 12.551 28 12 28ZM28 28C27.449 28 27 27.551 27 27C27 26.449 27.449 26 28 26C28.551 26 29 26.449 29 27C29 27.551 28.551 28 28 28ZM32 26H30.816C30.402 24.835 29.305 24 28 24C26.695 24 25.598 24.835 25.184 26H14.816C14.402 24.835 13.305 24 12 24C10.695 24 9.598 24.835 9.184 26H8V12H27V26H27.184C27.598 24.835 28.695 24 30 24C30.142 24 30.279 24.017 30.416 24.033L32 24.535V26ZM32 22.465L30.416 21.967C30.279 21.983 30.142 22 30 22C29.861 22 29.723 21.984 29.586 21.969L29 21.764V17H32V22.465Z" fill="#FF9800"/>
  <path d="M20 14H11C10.448 14 10 14.448 10 15V20C10 20.552 10.448 21 11 21H20C20.552 21 21 20.552 21 20V15C21 14.448 20.552 14 20 14ZM19 19H12V16H19V19Z" fill="#FF9800"/>
</svg>
