<svg width="40" height="40" viewBox="0 0 40 40" fill="none" xmlns="http://www.w3.org/2000/svg">
  <path d="M20 5C11.716 5 5 11.716 5 20C5 28.284 11.716 35 20 35C28.284 35 35 28.284 35 20C35 11.716 28.284 5 20 5ZM20 33C12.832 33 7 27.168 7 20C7 12.832 12.832 7 20 7C27.168 7 33 12.832 33 20C33 27.168 27.168 33 20 33Z" fill="#4CAF50"/>
  <path d="M28 16C28 15.448 27.552 15 27 15H23C23 15 23 13 23 11C23 9 21 9 21 9C21 9 21 12 19 15C17 18 14 18 14 18V28H24C26 28 27 26 27 25C27 24 26 23.5 26 23.5C27.5 23.5 28 22 28 21C28 20 27 19.5 27 19.5C28.5 19.5 29 18 29 17C29 16 28 16 28 16ZM25 25C25 25.551 24.551 26 24 26H16V20C16 20 19 20 22 16C22 16 22 16.5 22 17H27C27 17 27 18 26 18H24V20H26C26 20 26 21 25 21H23V23H25C25 23 25 24 25 25Z" fill="#4CAF50"/>
  <path d="M12 18H10V28H12V18Z" fill="#4CAF50"/>
</svg>
