<svg width="120" height="30" viewBox="0 0 120 30" fill="none" xmlns="http://www.w3.org/2000/svg">
  <path d="M0 5H10V8H3V13H9V16H3V25H0V5Z" fill="#333333"/>
  <path d="M12 5H22L25 13L28 5H38V8H31V25H28V8H24L20 19L16 8H12V5Z" fill="#333333"/>
  <path d="M40 5H50C53.866 5 57 8.134 57 12V18C57 21.866 53.866 25 50 25H40V5ZM43 8V22H50C52.209 22 54 20.209 54 18V12C54 9.791 52.209 8 50 8H43Z" fill="#333333"/>
  <path d="M60 5H70V8H63V13H69V16H63V22H70V25H60V5Z" fill="#333333"/>
  <path d="M72 5H82C85.866 5 89 8.134 89 12V18C89 21.866 85.866 25 82 25H72V5ZM75 8V22H82C84.209 22 86 20.209 86 18V12C86 9.791 84.209 8 82 8H75Z" fill="#333333"/>
  <path d="M91 5H94V22H101V25H91V5Z" fill="#333333"/>
  <path d="M103 5H113V8H106V13H112V16H106V22H113V25H103V5Z" fill="#333333"/>
  <path d="M115 5H118V25H115V5Z" fill="#333333"/>
</svg>
