<svg width="120" height="30" viewBox="0 0 120 30" fill="none" xmlns="http://www.w3.org/2000/svg">
  <path d="M0 5H10V8H3V13H9V16H3V22H10V25H0V5Z" fill="#333333"/>
  <path d="M12 5H22C25.866 5 29 8.134 29 12V18C29 21.866 25.866 25 22 25H12V5ZM15 8V22H22C24.209 22 26 20.209 26 18V12C26 9.791 24.209 8 22 8H15Z" fill="#333333"/>
  <path d="M31 5H41V8H34V13H40V16H34V22H41V25H31V5Z" fill="#333333"/>
  <path d="M43 5H53V8H46V13H52V16H46V22H53V25H43V5Z" fill="#333333"/>
  <path d="M55 5H65C68.866 5 72 8.134 72 12V18C72 21.866 68.866 25 65 25H55V5ZM58 8V22H65C67.209 22 69 20.209 69 18V12C69 9.791 67.209 8 65 8H58Z" fill="#333333"/>
  <path d="M74 5H84V8H77V13H83V16H77V22H84V25H74V5Z" fill="#333333"/>
  <path d="M86 5H96C99.866 5 103 8.134 103 12V18C103 21.866 99.866 25 96 25H86V5ZM89 8V22H96C98.209 22 100 20.209 100 18V12C100 9.791 98.209 8 96 8H89Z" fill="#333333"/>
</svg>
