<svg width="120" height="30" viewBox="0 0 120 30" fill="none" xmlns="http://www.w3.org/2000/svg">
  <path d="M30 15C30 9.477 34.477 5 40 5C45.523 5 50 9.477 50 15C50 20.523 45.523 25 40 25C34.477 25 30 20.523 30 15ZM33 15C33 18.866 36.134 22 40 22C43.866 22 47 18.866 47 15C47 11.134 43.866 8 40 8C36.134 8 33 11.134 33 15Z" fill="#333333"/>
  <path d="M50 15C50 9.477 54.477 5 60 5C65.523 5 70 9.477 70 15C70 20.523 65.523 25 60 25C54.477 25 50 20.523 50 15ZM53 15C53 18.866 56.134 22 60 22C63.866 22 67 18.866 67 15C67 11.134 63.866 8 60 8C56.134 8 53 11.134 53 15Z" fill="#333333"/>
  <path d="M70 15C70 9.477 74.477 5 80 5C85.523 5 90 9.477 90 15C90 20.523 85.523 25 80 25C74.477 25 70 20.523 70 15ZM73 15C73 18.866 76.134 22 80 22C83.866 22 87 18.866 87 15C87 11.134 83.866 8 80 8C76.134 8 73 11.134 73 15Z" fill="#333333"/>
</svg>
