<svg width="40" height="40" viewBox="0 0 40 40" fill="none" xmlns="http://www.w3.org/2000/svg">
  <path d="M20 5C12.268 5 6 11.268 6 19C6 26.732 12.268 33 20 33C27.732 33 34 26.732 34 19C34 11.268 27.732 5 20 5ZM20 31C13.383 31 8 25.617 8 19C8 12.383 13.383 7 20 7C26.617 7 32 12.383 32 19C32 25.617 26.617 31 20 31Z" fill="#4CAF50"/>
  <path d="M20 10C19.448 10 19 10.448 19 11V19C19 19.552 19.448 20 20 20H26C26.552 20 27 19.552 27 19C27 18.448 26.552 18 26 18H21V11C21 10.448 20.552 10 20 10Z" fill="#4CAF50"/>
  <path d="M20 25C21.1046 25 22 24.1046 22 23C22 21.8954 21.1046 21 20 21C18.8954 21 18 21.8954 18 23C18 24.1046 18.8954 25 20 25Z" fill="#4CAF50"/>
</svg>
