<svg width="120" height="30" viewBox="0 0 120 30" fill="none" xmlns="http://www.w3.org/2000/svg">
  <path d="M20 5H30V8H27V25H23V8H20V5Z" fill="#333333"/>
  <path d="M31 5H41V8H34V13H40V16H34V22H41V25H31V5Z" fill="#333333"/>
  <path d="M42 5H52V8H45V13H51V16H45V22H52V25H42V5Z" fill="#333333"/>
  <path d="M53 5H63V8H56V13H62V16H56V22H63V25H53V5Z" fill="#333333"/>
  <path d="M64 5H74V8H67V13H73V16H67V22H74V25H64V5Z" fill="#333333"/>
  <path d="M75 5H85V8H78V13H84V16H78V22H85V25H75V5Z" fill="#333333"/>
  <path d="M86 5H96V8H89V13H95V16H89V22H96V25H86V5Z" fill="#333333"/>
</svg>
