<svg width="40" height="40" viewBox="0 0 40 40" fill="none" xmlns="http://www.w3.org/2000/svg">
  <path d="M20 5C11.716 5 5 11.716 5 20C5 28.284 11.716 35 20 35C28.284 35 35 28.284 35 20C35 11.716 28.284 5 20 5ZM20 33C12.832 33 7 27.168 7 20C7 12.832 12.832 7 20 7C27.168 7 33 12.832 33 20C33 27.168 27.168 33 20 33Z" fill="#2196F3"/>
  <path d="M28 17H24V13C24 12.448 23.552 12 23 12H12C11.448 12 11 12.448 11 13V23C11 23.552 11.448 24 12 24H14C14 25.654 15.346 27 17 27C18.654 27 20 25.654 20 24H23C23 25.654 24.346 27 26 27C27.654 27 29 25.654 29 24H30C30.552 24 31 23.552 31 23V20C31 19.735 30.895 19.48 30.707 19.293L28.707 17.293C28.52 17.105 28.265 17 28 17ZM17 25C16.449 25 16 24.551 16 24C16 23.449 16.449 23 17 23C17.551 23 18 23.449 18 24C18 24.551 17.551 25 17 25ZM26 25C25.449 25 25 24.551 25 24C25 23.449 25.449 23 26 23C26.551 23 27 23.449 27 24C27 24.551 26.551 25 26 25ZM29 22H28.816C28.544 21.403 27.839 21 27 21C26.161 21 25.456 21.403 25.184 22H20.816C20.544 21.403 19.839 21 19 21C18.161 21 17.456 21.403 17.184 22H13V14H22V18C22 18.552 22.448 19 23 19H28.586L29 19.414V22Z" fill="#2196F3"/>
</svg>
